<mxfile host="app.diagrams.net" agent="Mozilla/5.0 (Windows NT 10.0; Win64; x64) AppleWebKit/537.36 (KHTML, like Gecko) Chrome/140.0.0.0 Safari/537.36" version="28.2.6">
  <diagram name="Página-1" id="3VOmBdCMfQPiCZod6AY_">
    <mxGraphModel grid="1" page="1" gridSize="10" guides="1" tooltips="1" connect="1" arrows="1" fold="1" pageScale="1" pageWidth="827" pageHeight="1169" math="0" shadow="0">
      <root>
        <mxCell id="0" />
        <mxCell id="1" parent="0" />
        <mxCell id="LN3KSY0bMEadeO5YVOzZ-1" value="" style="rounded=0;whiteSpace=wrap;html=1;" vertex="1" parent="1">
          <mxGeometry x="-920" y="350" width="680" height="870" as="geometry" />
        </mxCell>
        <mxCell id="LN3KSY0bMEadeO5YVOzZ-4" value="" style="rounded=0;whiteSpace=wrap;html=1;" vertex="1" parent="1">
          <mxGeometry x="750" y="350" width="620" height="870" as="geometry" />
        </mxCell>
        <mxCell id="LN3KSY0bMEadeO5YVOzZ-8" value="" style="rounded=0;whiteSpace=wrap;html=1;" vertex="1" parent="1">
          <mxGeometry x="-1700" y="350" width="620" height="870" as="geometry" />
        </mxCell>
        <mxCell id="LN3KSY0bMEadeO5YVOzZ-11" value="&lt;font style=&quot;font-size: 30px;&quot;&gt;BURGUER&lt;/font&gt;" style="text;html=1;whiteSpace=wrap;strokeColor=none;fillColor=none;align=center;verticalAlign=middle;rounded=0;" vertex="1" parent="1">
          <mxGeometry x="-1420" y="380" width="60" height="30" as="geometry" />
        </mxCell>
        <mxCell id="LN3KSY0bMEadeO5YVOzZ-16" value="&lt;font style=&quot;font-size: 29px;&quot;&gt;Tomar aquí&lt;/font&gt;" style="rounded=0;whiteSpace=wrap;html=1;" vertex="1" parent="1">
          <mxGeometry x="-1660" y="790" width="220" height="190" as="geometry" />
        </mxCell>
        <mxCell id="LN3KSY0bMEadeO5YVOzZ-17" value="&lt;span style=&quot;font-size: 29px;&quot;&gt;Para llevar&lt;/span&gt;" style="rounded=0;whiteSpace=wrap;html=1;" vertex="1" parent="1">
          <mxGeometry x="-1340" y="790" width="220" height="190" as="geometry" />
        </mxCell>
        <mxCell id="LN3KSY0bMEadeO5YVOzZ-19" value="&lt;font style=&quot;font-size: 30px;&quot;&gt;SELECCIÓN DE PRODUCTO&lt;/font&gt;" style="text;html=1;whiteSpace=wrap;strokeColor=none;fillColor=none;align=center;verticalAlign=middle;rounded=0;" vertex="1" parent="1">
          <mxGeometry x="-800" y="390" width="440" height="30" as="geometry" />
        </mxCell>
        <mxCell id="LN3KSY0bMEadeO5YVOzZ-27" value="&lt;span style=&quot;font-size: 30px;&quot;&gt;CONFIRMACIÓN DE PRODUCTOS&lt;/span&gt;" style="text;html=1;whiteSpace=wrap;strokeColor=none;fillColor=none;align=center;verticalAlign=middle;rounded=0;" vertex="1" parent="1">
          <mxGeometry x="840" y="390" width="440" height="30" as="geometry" />
        </mxCell>
        <mxCell id="LN3KSY0bMEadeO5YVOzZ-28" value="&lt;span style=&quot;font-size: 26px;&quot;&gt;Menús&lt;/span&gt;" style="rounded=1;whiteSpace=wrap;html=1;" vertex="1" parent="1">
          <mxGeometry x="-845" y="550" width="230" height="150" as="geometry" />
        </mxCell>
        <mxCell id="LN3KSY0bMEadeO5YVOzZ-29" value="&lt;span style=&quot;font-size: 26px;&quot;&gt;Hamburguesas&lt;/span&gt;" style="rounded=1;whiteSpace=wrap;html=1;" vertex="1" parent="1">
          <mxGeometry x="-520" y="550" width="230" height="150" as="geometry" />
        </mxCell>
        <mxCell id="LN3KSY0bMEadeO5YVOzZ-30" value="&lt;span style=&quot;font-size: 26px;&quot;&gt;Complementos&lt;/span&gt;" style="rounded=1;whiteSpace=wrap;html=1;" vertex="1" parent="1">
          <mxGeometry x="-845" y="870" width="230" height="150" as="geometry" />
        </mxCell>
        <mxCell id="LN3KSY0bMEadeO5YVOzZ-31" value="&lt;span style=&quot;font-size: 26px;&quot;&gt;Postres&lt;/span&gt;" style="rounded=1;whiteSpace=wrap;html=1;" vertex="1" parent="1">
          <mxGeometry x="-520" y="870" width="230" height="150" as="geometry" />
        </mxCell>
        <mxCell id="LN3KSY0bMEadeO5YVOzZ-59" value="" style="rounded=0;whiteSpace=wrap;html=1;" vertex="1" parent="1">
          <mxGeometry x="-110" y="350" width="680" height="870" as="geometry" />
        </mxCell>
        <mxCell id="LN3KSY0bMEadeO5YVOzZ-60" value="&lt;font style=&quot;font-size: 30px;&quot;&gt;MENÚS&lt;/font&gt;" style="text;html=1;whiteSpace=wrap;strokeColor=none;fillColor=none;align=center;verticalAlign=middle;rounded=0;" vertex="1" parent="1">
          <mxGeometry x="10" y="390" width="440" height="30" as="geometry" />
        </mxCell>
        <mxCell id="LN3KSY0bMEadeO5YVOzZ-68" value="" style="whiteSpace=wrap;html=1;aspect=fixed;" vertex="1" parent="1">
          <mxGeometry x="-30" y="600" width="160" height="160" as="geometry" />
        </mxCell>
        <mxCell id="LN3KSY0bMEadeO5YVOzZ-69" value="&lt;font style=&quot;font-size: 27px;&quot;&gt;Menú 4YOU&lt;/font&gt;" style="rounded=1;whiteSpace=wrap;html=1;" vertex="1" parent="1">
          <mxGeometry x="-60" y="520" width="220" height="60" as="geometry" />
        </mxCell>
        <mxCell id="LN3KSY0bMEadeO5YVOzZ-70" value="" style="whiteSpace=wrap;html=1;aspect=fixed;" vertex="1" parent="1">
          <mxGeometry x="320" y="600" width="160" height="160" as="geometry" />
        </mxCell>
        <mxCell id="LN3KSY0bMEadeO5YVOzZ-71" value="&lt;font style=&quot;font-size: 27px;&quot;&gt;Menú SIN GLUTEN&lt;/font&gt;" style="rounded=1;whiteSpace=wrap;html=1;" vertex="1" parent="1">
          <mxGeometry x="290" y="520" width="220" height="60" as="geometry" />
        </mxCell>
        <mxCell id="LN3KSY0bMEadeO5YVOzZ-75" value="" style="whiteSpace=wrap;html=1;aspect=fixed;" vertex="1" parent="1">
          <mxGeometry x="-10" y="970" width="160" height="160" as="geometry" />
        </mxCell>
        <mxCell id="LN3KSY0bMEadeO5YVOzZ-76" value="&lt;span style=&quot;font-size: 27px;&quot;&gt;Menú PEQUES&lt;/span&gt;" style="rounded=1;whiteSpace=wrap;html=1;" vertex="1" parent="1">
          <mxGeometry x="-40" y="870" width="220" height="60" as="geometry" />
        </mxCell>
        <mxCell id="LN3KSY0bMEadeO5YVOzZ-77" value="" style="whiteSpace=wrap;html=1;aspect=fixed;" vertex="1" parent="1">
          <mxGeometry x="280" y="970" width="160" height="160" as="geometry" />
        </mxCell>
        <mxCell id="LN3KSY0bMEadeO5YVOzZ-78" value="&lt;font style=&quot;font-size: 27px;&quot;&gt;Menú McCafé&lt;/font&gt;" style="rounded=1;whiteSpace=wrap;html=1;" vertex="1" parent="1">
          <mxGeometry x="250" y="870" width="220" height="60" as="geometry" />
        </mxCell>
        <mxCell id="LN3KSY0bMEadeO5YVOzZ-38" value="&lt;font style=&quot;font-size: 25px;&quot;&gt;FINALIZAR ELECCIÓN&lt;/font&gt;" style="rounded=1;whiteSpace=wrap;html=1;" vertex="1" parent="1">
          <mxGeometry x="340" y="1150" width="205" height="60" as="geometry" />
        </mxCell>
        <mxCell id="LN3KSY0bMEadeO5YVOzZ-37" value="&lt;span style=&quot;font-size: 25px;&quot;&gt;ATRÁS&lt;/span&gt;" style="rounded=1;whiteSpace=wrap;html=1;" vertex="1" parent="1">
          <mxGeometry x="-50" y="1150" width="120" height="60" as="geometry" />
        </mxCell>
        <mxCell id="LN3KSY0bMEadeO5YVOzZ-101" value="&lt;font style=&quot;font-size: 30px;&quot;&gt;Resumen del pedido&lt;/font&gt;" style="rounded=1;whiteSpace=wrap;html=1;" vertex="1" parent="1">
          <mxGeometry x="810" y="480" width="280" height="70" as="geometry" />
        </mxCell>
        <mxCell id="LN3KSY0bMEadeO5YVOzZ-102" value="" style="whiteSpace=wrap;html=1;aspect=fixed;" vertex="1" parent="1">
          <mxGeometry x="810" y="590" width="510" height="510" as="geometry" />
        </mxCell>
        <mxCell id="LN3KSY0bMEadeO5YVOzZ-103" value="&lt;span style=&quot;font-size: 30px;&quot;&gt;CONFIRMAR&lt;/span&gt;" style="rounded=1;whiteSpace=wrap;html=1;" vertex="1" parent="1">
          <mxGeometry x="1138" y="1140" width="205" height="60" as="geometry" />
        </mxCell>
        <mxCell id="LN3KSY0bMEadeO5YVOzZ-104" value="&lt;font style=&quot;font-size: 22px;&quot;&gt;1 Cocacola&lt;/font&gt;&lt;div&gt;&lt;font style=&quot;font-size: 22px;&quot;&gt;1 Hambuerguesa de pollo con patatas&lt;/font&gt;&lt;/div&gt;&lt;div&gt;&lt;font style=&quot;font-size: 22px;&quot;&gt;Tarta de queso&lt;/font&gt;&lt;/div&gt;" style="text;html=1;whiteSpace=wrap;strokeColor=none;fillColor=none;align=center;verticalAlign=middle;rounded=0;" vertex="1" parent="1">
          <mxGeometry x="725" y="580" width="600" height="170" as="geometry" />
        </mxCell>
        <mxCell id="LN3KSY0bMEadeO5YVOzZ-105" value="" style="rounded=0;whiteSpace=wrap;html=1;" vertex="1" parent="1">
          <mxGeometry x="1540" y="350" width="620" height="870" as="geometry" />
        </mxCell>
        <mxCell id="LN3KSY0bMEadeO5YVOzZ-106" value="&lt;span style=&quot;font-size: 30px;&quot;&gt;PAGOS&lt;/span&gt;" style="text;html=1;whiteSpace=wrap;strokeColor=none;fillColor=none;align=center;verticalAlign=middle;rounded=0;" vertex="1" parent="1">
          <mxGeometry x="1630" y="390" width="440" height="30" as="geometry" />
        </mxCell>
        <mxCell id="LN3KSY0bMEadeO5YVOzZ-107" value="" style="whiteSpace=wrap;html=1;aspect=fixed;" vertex="1" parent="1">
          <mxGeometry x="1070" y="740" width="160" height="160" as="geometry" />
        </mxCell>
        <mxCell id="LN3KSY0bMEadeO5YVOzZ-110" value="&lt;span style=&quot;font-size: 30px;&quot;&gt;TARJETA&lt;/span&gt;" style="rounded=1;whiteSpace=wrap;html=1;" vertex="1" parent="1">
          <mxGeometry x="1580" y="680" width="220" height="230" as="geometry" />
        </mxCell>
        <mxCell id="LN3KSY0bMEadeO5YVOzZ-111" value="&lt;span style=&quot;font-size: 30px;&quot;&gt;EFECTIVO&lt;/span&gt;" style="rounded=1;whiteSpace=wrap;html=1;" vertex="1" parent="1">
          <mxGeometry x="1910" y="680" width="220" height="230" as="geometry" />
        </mxCell>
        <mxCell id="LN3KSY0bMEadeO5YVOzZ-114" value="" style="shape=flexArrow;endArrow=classic;html=1;rounded=0;strokeWidth=5;endWidth=33.51351351351351;endSize=7.891891891891891;width=25.405405405405403;" edge="1" parent="1">
          <mxGeometry width="50" height="50" relative="1" as="geometry">
            <mxPoint x="-1040" y="800" as="sourcePoint" />
            <mxPoint x="-935" y="800" as="targetPoint" />
          </mxGeometry>
        </mxCell>
        <mxCell id="LN3KSY0bMEadeO5YVOzZ-116" value="" style="shape=flexArrow;endArrow=classic;html=1;rounded=0;strokeWidth=5;endWidth=33.51351351351351;endSize=7.891891891891891;width=25.405405405405403;exitX=0.5;exitY=0;exitDx=0;exitDy=0;" edge="1" parent="1" source="LN3KSY0bMEadeO5YVOzZ-28">
          <mxGeometry width="50" height="50" relative="1" as="geometry">
            <mxPoint x="-215" y="490" as="sourcePoint" />
            <mxPoint x="-110" y="490" as="targetPoint" />
          </mxGeometry>
        </mxCell>
        <mxCell id="LN3KSY0bMEadeO5YVOzZ-117" value="" style="shape=flexArrow;endArrow=classic;html=1;rounded=0;strokeWidth=5;endWidth=33.51351351351351;endSize=7.891891891891891;width=25.405405405405403;" edge="1" parent="1">
          <mxGeometry width="50" height="50" relative="1" as="geometry">
            <mxPoint x="-1040" y="800" as="sourcePoint" />
            <mxPoint x="-935" y="800" as="targetPoint" />
          </mxGeometry>
        </mxCell>
        <mxCell id="LN3KSY0bMEadeO5YVOzZ-118" value="" style="shape=flexArrow;endArrow=classic;html=1;rounded=0;strokeWidth=5;endWidth=33.51351351351351;endSize=7.891891891891891;width=25.405405405405403;exitX=1;exitY=0.5;exitDx=0;exitDy=0;" edge="1" parent="1" source="LN3KSY0bMEadeO5YVOzZ-38">
          <mxGeometry width="50" height="50" relative="1" as="geometry">
            <mxPoint x="610" y="1178.33" as="sourcePoint" />
            <mxPoint x="715" y="1178.33" as="targetPoint" />
          </mxGeometry>
        </mxCell>
        <mxCell id="LN3KSY0bMEadeO5YVOzZ-119" value="" style="shape=flexArrow;endArrow=classic;html=1;rounded=0;strokeWidth=5;endWidth=33.51351351351351;endSize=7.891891891891891;width=25.405405405405403;exitX=1;exitY=0.5;exitDx=0;exitDy=0;" edge="1" parent="1" source="LN3KSY0bMEadeO5YVOzZ-103" target="LN3KSY0bMEadeO5YVOzZ-105">
          <mxGeometry width="50" height="50" relative="1" as="geometry">
            <mxPoint x="1400" y="1180" as="sourcePoint" />
            <mxPoint x="1505" y="1180" as="targetPoint" />
          </mxGeometry>
        </mxCell>
        <mxCell id="LN3KSY0bMEadeO5YVOzZ-120" value="&lt;font style=&quot;font-size: 30px;&quot;&gt;TOTAL 15€&lt;/font&gt;" style="rounded=1;whiteSpace=wrap;html=1;" vertex="1" parent="1">
          <mxGeometry x="1170" y="1015" width="140" height="70" as="geometry" />
        </mxCell>
        <mxCell id="LN3KSY0bMEadeO5YVOzZ-123" value="" style="shape=flexArrow;endArrow=classic;html=1;rounded=0;strokeWidth=5;endWidth=33.51351351351351;endSize=7.891891891891891;width=25.405405405405403;entryX=1;entryY=0.5;entryDx=0;entryDy=0;exitX=0;exitY=0.25;exitDx=0;exitDy=0;" edge="1" parent="1" source="LN3KSY0bMEadeO5YVOzZ-126" target="LN3KSY0bMEadeO5YVOzZ-59">
          <mxGeometry width="50" height="50" relative="1" as="geometry">
            <mxPoint x="877.6800000000003" y="1141.44" as="sourcePoint" />
            <mxPoint x="1077" y="970" as="targetPoint" />
          </mxGeometry>
        </mxCell>
        <mxCell id="LN3KSY0bMEadeO5YVOzZ-124" value="&lt;font style=&quot;font-size: 30px;&quot;&gt;CANCELAR&lt;/font&gt;" style="rounded=1;whiteSpace=wrap;html=1;" vertex="1" parent="1">
          <mxGeometry x="830" y="915" width="180" height="60" as="geometry" />
        </mxCell>
        <mxCell id="LN3KSY0bMEadeO5YVOzZ-126" value="&lt;font style=&quot;font-size: 30px;&quot;&gt;MODIFICAR&lt;/font&gt;" style="rounded=1;whiteSpace=wrap;html=1;" vertex="1" parent="1">
          <mxGeometry x="830" y="1010" width="180" height="60" as="geometry" />
        </mxCell>
      </root>
    </mxGraphModel>
  </diagram>
</mxfile>
